<?xml version="1.0" encoding="utf-8"?>
<!-- Generator: Adobe Illustrator 22.1.0, SVG Export Plug-In . SVG Version: 6.00 Build 0)  -->
<svg version="1.1" id="Слой_1" focusable="false"
	 xmlns="http://www.w3.org/2000/svg" xmlns:xlink="http://www.w3.org/1999/xlink" x="0px" y="0px" viewBox="0 0 576 512"
	 style="enable-background:new 0 0 576 512;" xml:space="preserve">
<style type="text/css">
	.st0{fill:#FFFFFF;}
</style>
<path class="st0" d="M576,216v16c0,13.3-10.7,24-24,24h-8l-26.1,182.8c-3.4,23.6-23.6,41.2-47.5,41.2H105.6
	c-23.9,0-44.1-17.6-47.5-41.2L32,256h-8c-13.3,0-24-10.7-24-24v-16c0-13.3,10.7-24,24-24h67.3L198.1,45.2
	c10.4-14.3,30.4-17.5,44.7-7.1c14.3,10.4,17.5,30.4,7.1,44.7L170.5,192h235L326.1,82.8c-10.4-14.3-7.2-34.3,7.1-44.7
	c14.3-10.4,34.3-7.2,44.7,7.1L484.7,192H552C565.3,192,576,202.7,576,216z M312,392V280c0-13.3-10.7-24-24-24s-24,10.7-24,24v112
	c0,13.3,10.7,24,24,24S312,405.3,312,392z M424,392V280c0-13.3-10.7-24-24-24s-24,10.7-24,24v112c0,13.3,10.7,24,24,24
	S424,405.3,424,392z M200,392V280c0-13.3-10.7-24-24-24s-24,10.7-24,24v112c0,13.3,10.7,24,24,24S200,405.3,200,392z"/>
</svg>
