<?xml version="1.0" encoding="utf-8"?>
<!-- Generator: Adobe Illustrator 22.1.0, SVG Export Plug-In . SVG Version: 6.00 Build 0)  -->
<svg version="1.1" id="Слой_1" xmlns="http://www.w3.org/2000/svg" xmlns:xlink="http://www.w3.org/1999/xlink" x="0px" y="0px"
	 viewBox="0 0 1619.5 934.2" style="enable-background:new 0 0 1619.5 934.2;" xml:space="preserve">
<style type="text/css">
	.st0{fill:#5BB2CC;}
	.st1{fill:#096C81;}
	.st2{fill:#9D843F;}
	.st3{fill:#D1B77D;}
	.st4{fill:none;}
</style>
<rect class="st0" width="1619.5" height="934.2"/>
<g id="Синий_триугольник">
	<polygon class="st1" points="0,233 253,602 0,790.5 0,236.3 0,234.3 	"/>
	<polygon class="st1" points="1619.5,232 1366.5,601 1619.5,789.5 1619.5,235.3 1619.5,233.3 	"/>
</g>
<g id="Слой_3">
	<polygon class="st2" points="0,232.3 102.4,713.5 0,789.3 	"/>
	<polygon class="st3" points="0,282.3 273.3,360.3 0,485 	"/>
	<polygon class="st2" points="11.3,285.5 42.6,294.5 132,424.8 49,462.5 	"/>
	<polygon class="st2" points="1619.5,231.3 1619.5,790.3 1515.1,711 	"/>
	<polygon class="st3" points="1619.5,272.3 1346.2,350.3 1619.5,475 	"/>
	<polygon class="st2" points="1584.6,282.3 1610,275 1571.3,453 1492.3,416.9 	"/>
</g>
<line class="st4" x1="19.5" y1="1152.1" x2="113.9" y2="716.2"/>
</svg>
