<?xml version="1.0" encoding="utf-8"?>
<!-- Generator: Adobe Illustrator 22.1.0, SVG Export Plug-In . SVG Version: 6.00 Build 0)  -->
<svg version="1.1" id="Слой_1" xmlns="http://www.w3.org/2000/svg" xmlns:xlink="http://www.w3.org/1999/xlink" x="0px" y="0px"
	 viewBox="0 0 478 140" style="enable-background:new 0 0 478 140;" xml:space="preserve">
<style type="text/css">
	.st0{fill:#BF3030;stroke:#2A6BDD;stroke-miterlimit:10;}
	.st1{fill:#BF3030;stroke:#3F69EF;stroke-miterlimit:10;}
	.st2{fill:none;}
	.st3{fill:#F9F9F9;stroke:#000000;stroke-miterlimit:10;}
	.st4{font-family:'ArialMT';}
	.st5{font-size:79.6397px;}
</style>
<path class="st0" d="M151.6,25.4c-5.8,2.4-9.4,3.3-14,11.5c-6.4,11.6,4.4,20.3,11.5,20.4c9.8,0.2,15.7-3.7,23.7-6.6
	c1.3-0.5,7.1,4.8,8.9,7.9L169,91.4l-10.6-7l12.4-18.8v-2.4h-1.9l-1.2,4.2l-4.5,6.3l-2.3-6.1V77l-8.2,10.5V70.1L148,90.7l-13.6,10.1
	l9.8-31.2l-14.3,31.2l-13.3-1.9l17.8-32.8l-23.4,31l-11.5-7.7L128.1,58L93.9,86.3L81.3,75.1l44-25.5L74.7,70.3L60.4,57.7l66.3-18.8
	l-72.2,14l-11.6-13l83.7-6.3v-2.8l-87.2,4.5L27.9,22.5l123.2-2.1L151.6,25.4z"/>
<path class="st0" d="M227.7,23.7c5.8,2.4,10.1,4.9,12.6,11.3c2.2,5.7,3.3,17.3-9.6,19c-9.7,1.3-16.2-2.1-24.2-5.1
	c-1.3-0.5-7.1,4.8-8.9,7.9l12.2,34.5l9.8-5.2l-11.8-20.3l0.8-4.5h1.9l-0.2,5.2l3.5,5.6l4.7-6.5L217.2,77l8,8.5l-0.4-17.1l4.4,20.9
	l13.6,5.9l-7.5-27.6l12.9,30l16.1-0.1L245,64.3l24.6,30.5l15.6-7.8l-33.8-30.7l38,25.3l14.7-11.3l-50.3-23.9L310,66.5l11.7-12.8
	l-68.9-16.5l72.2,14l15-12.6l-87.2-6.5v-2.8l90.5,3.3L356.4,21l-128.1-2.2L227.7,23.7z"/>
<polygon class="st1" points="201.9,106 207.6,117.2 202.7,123.1 197.5,110.4 200.8,123.8 196.5,128.9 192.3,113.3 194.5,129.4 
	187.9,138.3 181.8,130.1 185.5,113.3 180.6,129 177.1,124.5 180.7,110.2 175.5,123.6 172,119.5 178.3,105.7 169.4,97.8 189.3,46.5 
	209.2,99 "/>
<polygon class="st0" points="158.1,36.4 149.7,41.1 156.7,48.6 156.9,44.4 163.8,40.6 "/>
<path class="st0" d="M159.5,29.6l22.3,0.9v2.6c-0.6,0-4.9-0.1-7.9,3.3c-2.1,2.5-2.3,5.3-2.3,6.1l-14.9-8L159.5,29.6z"/>
<path class="st0" d="M172.7,44.4c0.5-1.4,1.2-3.3,2.6-5.2c0.9-1.2,1.8-2.2,2.6-3l9.8,6.3l-4.7,14L172.7,44.4z"/>
<path class="st0" d="M206.7,43.4l-10.8,12l-5.1-12l11-7.3l0,0c2.4,1.6,4,4,4.7,6.7L206.7,43.4z"/>
<path class="st0" d="M198.8,29.6l21,1.7V36h-0.3c-3,0.2-5.6,2.1-6.7,4.9l-1.2,2.9l-2.4,1.2l-0.8-2.8c-1.1-3.8-3.6-6.9-7.1-8.7
	l-2.5-1.2V29.6z"/>
<circle class="st0" cx="164.7" cy="34.3" r="1.9"/>
<path class="st0" d="M218.9,38.2l5-0.3c2,0.3,3.4,1.9,3.4,3.9v0.7l-3.8,5.1l-0.9-2.5c-0.6-1.6-2-2.6-3.7-2.6h-5.1L218.9,38.2z"/>
<path class="st0" d="M168.5,101.8l7,5.2l-6.1,10c-0.6,0.9-0.6,2.1,0,3l0,0c1,1.8,1.9,3.6,2.6,5.6l0.7,2.2l-8.9,5.6l1.7-6.6l-1.7-2.3
	l-6.1,10.6l4.4,4.2h-2.6c-1.8,0-3.5-0.5-5-1.4h-0.1c-1.5-0.9-2.4-2.5-2.4-4.2l0,0l7.5-13.2l-4.5,0.8l-3,5.6l-1.4-11.3l11,0.5
	L168.5,101.8z"/>
<path class="st0" d="M204.3,107.1l5-5.2l4.9,8.7c0.9,1.6,2.3,2.9,3.9,3.7l0,0c1.1,0.5,2.3,0.8,3.5,0.8h0.4c1.5,0,2.9-0.5,4.2-1.3
	l0,0c0.7-0.5,1.6-0.7,2.4-0.5l0.6,0.1l-1.9,15l-1.7-1l0,0c0.3-1.7,0-3.4-1-4.8l0,0c-0.5-0.7-1.3-1.1-2.1-1.1h-1.9l5.5,10.1h3.1v5.4
	l-11.5,2.4l-1-3.7h1.7c0.9,0,1.7-0.3,2.4-0.7l0,0c1.3-0.9,2-2.6,1.5-4.1l0,0l-4.5-6.6l-2.6,1.2l0.4,0.8c0.7,1.6,2,2.9,3.5,3.7
	l0.6,0.3v2.8l-1.2-0.2c-1.2-0.2-2.4-0.6-3.4-1.2l-6.7-3.6c-1-0.6-1.7-1.6-1.7-2.8l0,0l1.6-1c0.6-0.4,1.3-0.8,1.9-1.3l0,0
	c1.2-1,2-2.5,2-4l0,0c0.1-1.3-0.4-2.6-1.2-3.6L204.3,107.1z"/>
<rect x="-11.1" y="79.4" class="st2" width="397.7" height="78.4"/>
<text transform="matrix(1 0 0 1 -7.2929 132.6584)" class="st3 st4 st5">IMPERIUM</text>
</svg>
