<?xml version="1.0" encoding="utf-8"?>
<!-- Generator: Adobe Illustrator 22.1.0, SVG Export Plug-In . SVG Version: 6.00 Build 0)  -->
<svg version="1.1" id="Capa_1" xmlns="http://www.w3.org/2000/svg" xmlns:xlink="http://www.w3.org/1999/xlink" x="0px" y="0px"
	 viewBox="0 0 512 512" style="enable-background:new 0 0 512 512;" xml:space="preserve">
<style type="text/css">
	.st0{fill:#4A75A7;}
	.st1{fill:#FFFFFF;}
</style>
<path class="st0" d="M377.5,512h-243C60.2,512,0,451.8,0,377.5v-243C0,60.2,60.2,0,134.5,0h243C451.8,0,512,60.2,512,134.5v243
	C512,451.8,451.8,512,377.5,512z"/>
<g>
	<path class="st1" d="M483.8,363.2c-0.5-1.2-1.1-2.2-1.5-3c-8-14.6-23.3-32.4-45.8-53.6l-0.5-0.5l-0.3-0.3l-0.3-0.3h-0.2
		c-10.2-9.8-16.7-16.5-19.4-19.9c-5-6.5-6.1-13-3.4-19.7c1.9-5,9.1-15.6,21.6-31.8c6.6-8.6,11.7-15.5,15.6-20.7
		c27.7-37.2,39.7-61,35.9-71.3l-1.5-2.5c-1-1.5-3.5-2.8-7.5-4c-4-1.2-9.1-1.5-15.4-0.6l-69.1,0.5c-1.1-0.4-2.7-0.4-4.8,0.1
		c-2.1,0.5-3.1,0.7-3.1,0.7l-1.2,0.6l-0.9,0.7c-0.8,0.5-1.6,1.4-2.6,2.5c-0.9,1.2-1.7,2.6-2.4,4.3c-7.6,19.6-16.1,37.8-25.7,54.6
		c-5.9,10-11.4,18.7-16.3,26.1s-9.1,12.7-12.5,16.3c-3.4,3.5-6.4,6.3-9.1,8.4s-4.8,3-6.2,2.6c-1.5-0.4-2.8-0.6-4.1-1
		c-2.3-1.5-4-3.5-5.4-5.9c-1.4-2.5-2.3-5.6-2.7-9.5s-0.7-7.1-0.8-9.8c-0.1-2.7,0-6.6,0.1-11.6c0.2-5,0.3-8.4,0.3-10.2
		c0-6.2,0.1-12.8,0.4-20s0.5-12.9,0.6-17.1c0.2-4.2,0.3-8.6,0.3-13.4s-0.3-8.4-0.8-11c-0.5-2.6-1.4-5.3-2.5-7.7
		c-1.1-2.5-2.7-4.5-4.9-5.8c-2.2-1.4-4.8-2.5-8-3.3c-8.5-1.9-19.3-3-32.4-3.2c-29.8-0.4-48.9,1.6-57.3,5.8c-3.4,1.8-6.4,4.2-9.1,7.3
		c-2.9,3.5-3.3,5.5-1.2,5.8c9.6,1.5,16.4,4.9,20.4,10.5l1.5,2.9c1.1,2.1,2.3,5.8,3.4,11.2c1.1,5.4,1.8,11.3,2.2,17.7
		c0.8,11.8,0.8,21.9,0,30.3c-0.8,8.4-1.5,14.9-2.3,19.7s-1.8,8.5-3.3,11.4c-1.5,2.9-2.4,4.7-2.9,5.4c-0.5,0.6-0.9,1.1-1.2,1.2
		c-2.1,0.8-4.3,1.2-6.5,1.2c-2.3,0-4.9-1.1-8.2-3.4c-3.2-2.3-6.6-5.4-9.9-9.4c-3.5-4-7.3-9.5-11.6-16.7c-4.3-7.1-8.8-15.6-13.5-25.2
		l-3.8-7c-2.4-4.6-5.6-11.1-9.8-19.7c-4.2-8.6-7.8-17-11-25.1c-1.3-3.4-3.2-6-5.7-7.7l-1.2-0.7c-0.8-0.6-2.1-1.4-3.8-2.1
		c-1.7-0.7-3.6-1.3-5.6-1.5l-65.7,0.5c-6.7,0-11.3,1.5-13.7,4.6l-1.1,1.5c-0.5,0.8-0.7,2.1-0.7,3.9c0,1.8,0.5,4,1.5,6.6
		c9.6,22.8,20,44.8,31.3,66s21,38.2,29.4,51.1c8.3,12.9,16.7,25.1,25.4,36.7c8.6,11.5,14.4,18.8,17.1,22.1c2.8,3.3,5,5.6,6.6,7.3
		l6,5.8c3.8,3.9,9.5,8.6,16.9,13.9c7.5,5.5,15.7,10.7,24.7,16c9,5.3,19.6,9.6,31.5,12.8c12,3.3,23.7,4.6,35,4h27.6
		c5.6-0.5,9.8-2.3,12.7-5.4l0.9-1.2c0.6-1,1.3-2.5,1.8-4.5c0.5-2,0.8-4.3,0.8-6.6c-0.2-6.9,0.4-13.2,1.5-18.8
		c1.2-5.6,2.5-9.7,4.1-12.6c1.5-2.8,3.3-5.2,5.2-7.2c1.9-1.9,3.3-3.1,4.1-3.5c0.8-0.4,1.5-0.7,1.9-0.8c3.8-1.3,8.4,0,13.6,3.7
		c5.2,3.8,10.1,8.5,14.7,14.1c4.6,5.6,10,11.8,16.4,18.8c6.4,6.9,12,12.1,16.7,15.6l4.8,2.9c3.2,1.9,7.4,3.7,12.5,5.4
		c5.1,1.6,9.6,2,13.4,1.2l61.3-1c6.1,0,10.8-1,14.1-3c3.4-2,5.4-4.3,6-6.6c0.6-2.5,0.6-5.2,0.1-8.3
		C484.9,366.5,484.3,364.4,483.8,363.2z"/>
</g>
</svg>
