<?xml version="1.0" encoding="utf-8"?>
<!-- Generator: Adobe Illustrator 22.1.0, SVG Export Plug-In . SVG Version: 6.00 Build 0)  -->
<svg version="1.1" id="Layer_1" xmlns="http://www.w3.org/2000/svg" xmlns:xlink="http://www.w3.org/1999/xlink" x="0px" y="0px"
	 viewBox="0 0 378 386.1" style="enable-background:new 0 0 378 386.1;" xml:space="preserve">
<g>
	<g>
		<g>
			<path d="M369.9,150.4h-42.1L320.1,7.7C319.8,3.4,316.3,0,312,0h-40.6c-4.3,0-7.9,3.4-8.1,7.7l-7.7,142.7h-17.1L230.7,7.7
				c-0.2-4.3-3.8-7.7-8.1-7.7h-40.6c-4.3,0-7.9,3.4-8.1,7.7l-7.7,142.7H8.1c-4.5,0-8.1,3.6-8.1,8.1V378c0,4.5,3.6,8.1,8.1,8.1h361.7
				c4.5,0,8.1-3.6,8.1-8.1V158.5C378,154,374.4,150.4,369.9,150.4z M279,16.3h25.2l7.3,134.1h-39.7L279,16.3z M189.6,16.3h25.2
				l7.3,134.1h-39.7L189.6,16.3z M160.5,369.9H48.8v-72h111.8V369.9z M160.5,281.6H48.8v-17.4h111.8V281.6z M361.7,369.9H176.8
				V256.1c0-4.5-3.6-8.1-8.1-8.1h-128c-4.5,0-8.1,3.6-8.1,8.1v113.8H16.3V166.6h345.5L361.7,369.9L361.7,369.9z"/>
			<path d="M203.6,321.8h58.5c4.5,0,8.1-3.6,8.1-8.1c0-4.5-3.6-8.1-8.1-8.1h-50.4v-41.4h117.5v49.5c0,4.5,3.6,8.1,8.1,8.1
				c4.5,0,8.1-3.6,8.1-8.1v-57.6c0-4.5-3.6-8.1-8.1-8.1H203.6c-4.5,0-8.1,3.6-8.1,8.1v57.6C195.5,318.2,199.1,321.8,203.6,321.8z"/>
			<path d="M301.2,305.6h-0.8c-4.5,0-8.1,3.6-8.1,8.1c0,4.5,3.6,8.1,8.1,8.1h0.8c4.5,0,8.1-3.6,8.1-8.1
				C309.3,309.2,305.7,305.6,301.2,305.6z"/>
			<path d="M40.6,231.7h49.8c4.5,0,8.1-3.6,8.1-8.1V191c0-4.5-3.6-8.1-8.1-8.1H40.6c-4.5,0-8.1,3.6-8.1,8.1v32.5
				C32.5,228,36.2,231.7,40.6,231.7z M48.8,199.2h33.5v16.3H48.8V199.2z"/>
			<path d="M123,231.7h49.8c4.5,0,8.1-3.6,8.1-8.1V191c0-4.5-3.6-8.1-8.1-8.1H123c-4.5,0-8.1,3.6-8.1,8.1v32.5
				C114.8,228,118.5,231.7,123,231.7z M131.1,199.2h33.5v16.3h-33.5V199.2z"/>
		</g>
	</g>
</g>
</svg>
